<svg width="537" height="412" viewBox="0 0 537 412" fill="none" xmlns="http://www.w3.org/2000/svg">
<path d="M275.937 380.665L476.977 269.793C478.426 269.026 479.646 267.877 480.509 266.466C481.372 265.054 481.847 263.433 481.884 261.771C481.922 260.109 481.519 258.467 480.72 257.017C479.92 255.568 478.753 254.364 477.339 253.53L282.449 134.937C280.957 134.036 279.26 133.549 277.526 133.525C275.792 133.501 274.082 133.941 272.568 134.8L59.9024 256.031C58.4554 256.826 57.2466 258.005 56.4042 259.443C55.5617 260.88 55.1169 262.523 55.1169 264.197C55.1169 265.871 55.5617 267.513 56.4042 268.951C57.2466 270.388 58.4554 271.567 59.9024 272.362L249.53 380.474C253.562 382.762 258.095 383.979 262.71 384.012C267.325 384.045 271.875 382.894 275.937 380.665V380.665Z" fill="#00275E"/>
<path d="M241.905 215.99C241.905 215.99 201.241 238.088 191.615 290.811C191.615 290.811 231.219 299.353 284.247 254.706" fill="#EB773A"/>
<path d="M241.395 222.714C241.395 222.714 224.05 238.552 219.163 249.731C214.276 260.91 207.9 277.268 207.9 277.268C207.9 277.268 238.441 279.919 267.157 262.031C295.874 244.142 268.5 210.687 241.395 222.714Z" fill="#FFAE46"/>
<path d="M258.633 217.151C257.585 218.942 239.717 229.191 236.374 243.978L242.2 239.482C242.2 239.482 232.293 253.612 228.091 261.744C228.091 261.744 252.256 251.945 251.504 252.533L244.671 257.808C244.671 257.808 263.049 257.412 275.548 246.041C288.047 234.671 270.863 214.842 270.863 214.842L258.633 217.151Z" fill="#FAD374"/>
<path d="M312.561 217.015C312.561 217.015 309.406 237.855 302.653 242.98C295.9 248.105 273.977 265.092 273.977 265.092L270.339 260.199C270.339 260.199 285.456 232.772 288.127 220.664C290.799 208.556 312.561 217.015 312.561 217.015Z" fill="#68E1FD"/>
<path opacity="0.61" d="M312.561 217.015C312.561 217.015 309.406 237.855 302.653 242.98C295.9 248.105 273.977 265.092 273.977 265.092L270.339 260.199C270.339 260.199 285.456 232.772 288.127 220.664C290.799 208.556 312.561 217.015 312.561 217.015Z" fill="#363636"/>
<path d="M290.732 187.688C290.732 187.688 270.165 185.146 263.425 190.421C256.686 195.696 234.75 212.532 234.75 212.532L238.388 217.425C238.388 217.425 268.419 210.031 280.596 210.701C292.772 211.371 290.732 187.688 290.732 187.688Z" fill="#68E1FD"/>
<path opacity="0.61" d="M290.732 187.688C290.732 187.688 270.165 185.146 263.425 190.421C256.686 195.696 234.75 212.532 234.75 212.532L238.388 217.425C238.388 217.425 268.419 210.031 280.596 210.701C292.772 211.371 290.732 187.688 290.732 187.688Z" fill="#363636"/>
<path d="M389.473 152.703C394.909 144.057 399.3 134.774 402.549 125.056C402.549 125.056 390.6 125.193 372.745 130.605C374.168 139.857 381.431 147.236 389.473 152.703Z" fill="#68E1FD"/>
<path d="M341.575 190.263C347.248 185.887 347.887 177.019 343.002 170.456C338.117 163.893 329.558 162.119 323.885 166.495C318.211 170.871 317.572 179.739 322.457 186.302C327.342 192.865 335.902 194.638 341.575 190.263Z" fill="#68E1FD"/>
<path d="M444.273 92.3398C444.273 92.3398 331.772 120.82 274.608 205.139C274.608 205.139 261.183 219.721 267.668 227.825C274.152 235.929 295.766 229.478 295.766 229.478C295.766 229.478 366.798 208.952 444.273 92.3398Z" fill="#68E1FD"/>
<path d="M274.608 205.139C274.608 205.139 260.432 203.39 255.813 206.984C251.195 210.578 236.052 222.222 236.052 222.222L238.562 225.597C238.562 225.597 259.264 220.5 267.641 220.964C276.018 221.429 274.608 205.139 274.608 205.139Z" fill="#68E1FD"/>
<path d="M291.685 228.084C291.685 228.084 289.51 242.447 284.852 246.028C280.193 249.608 265.09 261.265 265.09 261.265L262.593 257.931C262.593 257.931 273.011 239.031 274.85 230.681C276.689 222.331 291.685 228.084 291.685 228.084Z" fill="#68E1FD"/>
<path opacity="0.29" d="M274.608 205.139C274.608 205.139 260.432 203.39 255.813 206.984C251.195 210.578 236.052 222.222 236.052 222.222L238.562 225.597C238.562 225.597 259.264 220.5 267.641 220.964C276.018 221.429 274.608 205.139 274.608 205.139Z" fill="#363636"/>
<path opacity="0.29" d="M291.685 228.084C291.685 228.084 289.51 242.447 284.852 246.028C280.193 249.608 265.09 261.265 265.09 261.265L262.593 257.931C262.593 257.931 273.011 239.031 274.85 230.681C276.689 222.331 291.685 228.084 291.685 228.084Z" fill="#363636"/>
<path d="M389.62 112.88C389.62 112.88 389.231 132.245 409.369 139.419L397.689 152.921C397.689 152.921 372.396 138.449 376.316 119.439L389.62 112.88Z" fill="#68E1FD"/>
<path d="M317.38 157.773C317.38 157.773 317.609 190.571 347.654 199.905L325.341 215.43C325.341 215.43 293.121 204.046 299.096 174.869L317.38 157.773Z" fill="#68E1FD"/>
<path d="M371.688 153.044C373.685 151.503 374.077 148.606 372.564 146.573C371.051 144.539 368.204 144.14 366.207 145.68C364.209 147.221 363.817 150.118 365.331 152.152C366.844 154.185 369.69 154.584 371.688 153.044Z" fill="#68E1FD"/>
<path d="M355.209 177.238C360.441 173.244 361.501 165.689 357.578 160.364C353.654 155.038 346.232 153.959 341 157.953C335.769 161.947 334.709 169.502 338.632 174.828C342.556 180.153 349.978 181.233 355.209 177.238Z" fill="#68E1FD"/>
<path opacity="0.61" d="M389.62 112.88C389.62 112.88 389.231 132.245 409.369 139.419L397.689 152.921C397.689 152.921 372.396 138.449 376.316 119.439L389.62 112.88Z" fill="#606060"/>
<path opacity="0.61" d="M317.38 157.773C317.38 157.773 317.609 190.571 347.654 199.905L325.341 215.43C325.341 215.43 293.121 204.046 299.096 174.869L317.38 157.773Z" fill="#606060"/>
<path opacity="0.61" d="M371.688 153.044C373.685 151.503 374.077 148.606 372.564 146.573C371.051 144.539 368.204 144.14 366.207 145.68C364.209 147.221 363.817 150.118 365.331 152.152C366.844 154.185 369.69 154.584 371.688 153.044Z" fill="#606060"/>
<path opacity="0.61" d="M355.209 177.238C360.441 173.244 361.501 165.689 357.578 160.364C353.654 155.038 346.232 153.959 341 157.953C335.769 161.947 334.709 169.502 338.632 174.828C342.556 180.153 349.978 181.233 355.209 177.238Z" fill="#606060"/>
<path d="M411.208 237.336C410.852 237.336 410.51 237.48 410.258 237.736C410.007 237.993 409.865 238.34 409.865 238.703C409.865 239.065 410.007 239.413 410.258 239.669C410.51 239.925 410.852 240.069 411.208 240.069C411.564 240.069 411.905 239.925 412.157 239.669C412.409 239.413 412.55 239.065 412.55 238.703C412.55 238.34 412.409 237.993 412.157 237.736C411.905 237.48 411.564 237.336 411.208 237.336Z" fill="white"/>
<path d="M343.197 291.768V292.643C343.197 293.005 343.338 293.353 343.59 293.609C343.842 293.865 344.183 294.009 344.539 294.009C344.895 294.009 345.237 293.865 345.489 293.609C345.74 293.353 345.882 293.005 345.882 292.643V291.768C345.882 291.405 345.74 291.058 345.489 290.802C345.237 290.545 344.895 290.401 344.539 290.401C344.183 290.401 343.842 290.545 343.59 290.802C343.338 291.058 343.197 291.405 343.197 291.768Z" fill="white"/>
<path d="M249.168 313.524V314.399C249.168 314.761 249.309 315.109 249.561 315.365C249.813 315.621 250.154 315.765 250.511 315.765C250.867 315.765 251.208 315.621 251.46 315.365C251.712 315.109 251.853 314.761 251.853 314.399V313.524C251.853 313.162 251.712 312.814 251.46 312.558C251.208 312.302 250.867 312.158 250.511 312.158C250.154 312.158 249.813 312.302 249.561 312.558C249.309 312.814 249.168 313.162 249.168 313.524Z" fill="white"/>
<path d="M336.847 246.902C336.491 246.902 336.149 247.046 335.897 247.303C335.646 247.559 335.504 247.907 335.504 248.269C335.504 248.631 335.646 248.979 335.897 249.235C336.149 249.492 336.491 249.636 336.847 249.636C337.203 249.636 337.544 249.492 337.796 249.235C338.048 248.979 338.189 248.631 338.189 248.269C338.189 247.907 338.048 247.559 337.796 247.303C337.544 247.046 337.203 246.902 336.847 246.902Z" fill="white"/>
<path d="M176.149 244.265C175.793 244.265 175.452 244.409 175.2 244.665C174.948 244.921 174.807 245.269 174.807 245.631C174.807 245.994 174.948 246.341 175.2 246.598C175.452 246.854 175.793 246.998 176.149 246.998C176.506 246.998 176.847 246.854 177.099 246.598C177.351 246.341 177.492 245.994 177.492 245.631C177.492 245.269 177.351 244.921 177.099 244.665C176.847 244.409 176.506 244.265 176.149 244.265Z" fill="white"/>
<path d="M115.817 248.269V249.144C115.817 249.506 115.959 249.854 116.211 250.11C116.462 250.366 116.804 250.51 117.16 250.51C117.516 250.51 117.857 250.366 118.109 250.11C118.361 249.854 118.502 249.506 118.502 249.144V248.269C118.502 247.907 118.361 247.559 118.109 247.303C117.857 247.046 117.516 246.902 117.16 246.902C116.804 246.902 116.462 247.046 116.211 247.303C115.959 247.559 115.817 247.907 115.817 248.269Z" fill="white"/>
<path d="M144.52 291.276C144.164 291.276 143.823 291.42 143.571 291.676C143.319 291.932 143.178 292.28 143.178 292.643C143.178 293.005 143.319 293.353 143.571 293.609C143.823 293.865 144.164 294.009 144.52 294.009C144.876 294.009 145.218 293.865 145.469 293.609C145.721 293.353 145.863 293.005 145.863 292.643C145.863 292.28 145.721 291.932 145.469 291.676C145.218 291.42 144.876 291.276 144.52 291.276Z" fill="white"/>
<path d="M188.97 213.831C188.614 213.831 188.273 213.975 188.021 214.231C187.769 214.487 187.628 214.835 187.628 215.197C187.628 215.56 187.769 215.907 188.021 216.164C188.273 216.42 188.614 216.564 188.97 216.564C189.326 216.564 189.668 216.42 189.92 216.164C190.171 215.907 190.313 215.56 190.313 215.197C190.313 214.835 190.171 214.487 189.92 214.231C189.668 213.975 189.326 213.831 188.97 213.831Z" fill="white"/>
<path d="M254.78 170.332C254.424 170.332 254.082 170.476 253.83 170.732C253.579 170.988 253.437 171.336 253.437 171.698C253.437 172.061 253.579 172.408 253.83 172.665C254.082 172.921 254.424 173.065 254.78 173.065C255.136 173.065 255.477 172.921 255.729 172.665C255.981 172.408 256.122 172.061 256.122 171.698C256.122 171.336 255.981 170.988 255.729 170.732C255.477 170.476 255.136 170.332 254.78 170.332Z" fill="white"/>
<path d="M294.961 340.87C294.605 340.87 294.263 341.014 294.011 341.27C293.76 341.526 293.618 341.874 293.618 342.236C293.618 342.599 293.76 342.947 294.011 343.203C294.263 343.459 294.605 343.603 294.961 343.603C295.317 343.603 295.658 343.459 295.91 343.203C296.162 342.947 296.303 342.599 296.303 342.236C296.303 341.874 296.162 341.526 295.91 341.27C295.658 341.014 295.317 340.87 294.961 340.87Z" fill="white"/>
<path d="M383.848 264.053C375.215 264.053 375.188 277.719 383.848 277.719C392.507 277.719 392.507 264.053 383.848 264.053Z" fill="#FFAE46"/>
<path d="M142.815 256.223C134.183 256.223 134.156 269.889 142.815 269.889C151.474 269.889 151.461 256.223 142.815 256.223Z" fill="#FFAE46"/>
<path d="M271.494 346.104C270.235 344.823 268.528 344.103 266.748 344.103C264.968 344.103 263.261 344.823 262.002 346.104C260.768 347.404 260.067 349.134 260.042 350.942V351.816C260.062 353.625 260.764 355.357 262.002 356.654C263.261 357.935 264.968 358.655 266.748 358.655C268.528 358.655 270.235 357.935 271.494 356.654C272.728 355.354 273.429 353.624 273.454 351.816V350.942C273.434 349.133 272.732 347.401 271.494 346.104V346.104Z" fill="#00AEE1"/>
<path d="M148.682 163.28C164.845 163.28 177.948 149.942 177.948 133.488C177.948 117.035 164.845 103.696 148.682 103.696C132.518 103.696 119.415 117.035 119.415 133.488C119.415 149.942 132.518 163.28 148.682 163.28Z" fill="#68E1FD"/>
<path d="M172.484 117.103C175.572 116.236 178.711 115.569 181.882 115.107C183.474 114.861 185.079 114.706 186.688 114.643C188.359 114.547 190.034 114.648 191.682 114.943C192.635 115.108 193.547 115.461 194.367 115.982C194.861 116.313 195.282 116.746 195.602 117.253C195.938 117.805 196.132 118.435 196.166 119.084C196.178 120.157 195.934 121.217 195.455 122.173C195.075 122.986 194.625 123.763 194.112 124.496C192.077 127.157 189.722 129.549 187.104 131.616C182.079 135.688 176.741 139.344 171.142 142.549C165.602 145.809 159.898 148.769 154.052 151.418C148.205 154.111 142.201 156.438 136.076 158.388C132.989 159.391 129.852 160.226 126.678 160.888C123.426 161.615 120.122 162.077 116.798 162.269C115.094 162.358 113.387 162.289 111.696 162.064C109.888 161.855 108.127 161.338 106.487 160.533C105.586 160.092 104.761 159.506 104.044 158.798C103.238 157.987 102.659 156.973 102.366 155.859C102.106 154.796 102.106 153.684 102.366 152.621C102.587 151.696 102.925 150.805 103.373 149.969C105.142 147.061 107.416 144.505 110.085 142.426C112.55 140.348 115.186 138.492 117.966 136.877C115.663 139.042 113.467 141.323 111.387 143.71C109.307 145.969 107.581 148.541 106.272 151.336C105.745 152.402 105.621 153.627 105.923 154.78C106.096 155.208 106.374 155.584 106.729 155.873C107.188 156.237 107.694 156.536 108.232 156.761C110.903 157.662 113.739 157.938 116.529 157.568C122.61 156.848 128.593 155.446 134.371 153.386C140.278 151.445 146.037 149.013 151.823 146.553C163.273 141.56 174.232 135.474 184.553 128.377C187.033 126.633 189.323 124.627 191.387 122.391C191.845 121.868 192.258 121.306 192.622 120.71C192.908 120.253 193.099 119.742 193.186 119.207C193.198 119.025 193.162 118.843 193.082 118.679C193.002 118.516 192.88 118.377 192.729 118.278C192.222 117.902 191.654 117.62 191.051 117.444C188.082 116.717 185.026 116.423 181.976 116.57C178.794 116.583 175.639 116.775 172.484 117.103Z" fill="#8CC63F"/>
</svg>
