<svg width="600" height="434" viewBox="0 0 600 434" fill="none" xmlns="http://www.w3.org/2000/svg">
<path d="M64.6439 144.993C114.514 145.536 118.989 68.7402 168.092 76.705C233.627 87.3351 127.267 203.524 186.497 231.221C247.676 259.83 269.334 126.424 335.005 144.993C413.668 167.236 277.891 327.757 359.756 335.968C415.745 341.584 421.386 252.444 477.166 259.578C557.426 269.843 397.363 420.299 477.166 433.192C543.951 443.982 624.695 343.228 599.019 335.968C596.415 335.232 606 335.968 606 335.968V319.765V-2H2.44832C-2.98895 67.0347 -5.5232 144.229 64.6439 144.993Z" fill="white"/>
</svg>
